<svg width="22" height="16" viewBox="0 0 22 16" fill="none" xmlns="http://www.w3.org/2000/svg">
<path d="M19.17 5.82009C18.8885 5.81853 18.6074 5.84196 18.33 5.89009C18.2576 5.45219 18.0925 5.03479 17.8459 4.66576C17.5993 4.29673 17.2769 3.98455 16.9 3.75009L16.62 3.59009L16.43 3.86009C16.1914 4.2237 16.0187 4.62653 15.92 5.05009C15.8213 5.42313 15.7997 5.81238 15.8564 6.19407C15.9131 6.57576 16.0471 6.94188 16.25 7.27009C15.7921 7.47422 15.3006 7.59284 14.8 7.62009H1.63C1.46463 7.62007 1.30588 7.68507 1.18802 7.80106C1.07015 7.91705 1.00262 8.07474 0.999995 8.24009C0.987687 9.39579 1.18417 10.5442 1.57999 11.6301C1.93532 12.697 2.63992 13.613 3.57999 14.2301C4.94639 14.9236 6.4693 15.251 8 15.1801C8.81047 15.1941 9.62052 15.1339 10.42 15.0001C11.5406 14.7995 12.6192 14.4106 13.61 13.8501C14.4281 13.3541 15.1608 12.7294 15.78 12.0001C16.7034 10.9137 17.4248 9.67078 17.91 8.33009H18.1C18.5089 8.34521 18.9166 8.27871 19.2995 8.13449C19.6824 7.99026 20.0327 7.7712 20.33 7.49009C20.5896 7.24813 20.7912 6.95076 20.92 6.62009L21 6.40009L20.8 6.24009C20.3156 5.92932 19.7443 5.78211 19.17 5.82009V5.82009Z" fill="black"/>
<path d="M4.61 5.34993H2.85C2.80924 5.34985 2.76999 5.36533 2.74026 5.39321C2.71052 5.42108 2.69255 5.45925 2.69 5.49993V7.07993C2.69255 7.12061 2.71052 7.15878 2.74026 7.18666C2.76999 7.21453 2.80924 7.23001 2.85 7.22993H4.61C4.65076 7.23001 4.69001 7.21453 4.71975 7.18666C4.74948 7.15878 4.76746 7.12061 4.77 7.07993V5.49993C4.76746 5.45925 4.74948 5.42108 4.71975 5.39321C4.69001 5.36533 4.65076 5.34985 4.61 5.34993V5.34993ZM7.05 5.34993H5.28C5.23925 5.34985 5.19999 5.36533 5.17026 5.39321C5.14052 5.42108 5.12255 5.45925 5.12 5.49993V7.07993C5.12255 7.12061 5.14052 7.15878 5.17026 7.18666C5.19999 7.21453 5.23925 7.23001 5.28 7.22993H7.05C7.08979 7.22993 7.12794 7.21413 7.15607 7.186C7.1842 7.15787 7.2 7.11971 7.2 7.07993V5.49993C7.2 5.46015 7.1842 5.422 7.15607 5.39387C7.12794 5.36574 7.08979 5.34993 7.05 5.34993V5.34993ZM9.52 5.34993H7.75C7.71022 5.34993 7.67207 5.36574 7.64394 5.39387C7.61581 5.422 7.6 5.46015 7.6 5.49993V7.07993C7.6 7.11971 7.61581 7.15787 7.64394 7.186C7.67207 7.21413 7.71022 7.22993 7.75 7.22993H9.52C9.55979 7.22993 9.59794 7.21413 9.62607 7.186C9.6542 7.15787 9.67 7.11971 9.67 7.07993V5.49993C9.67 5.46015 9.6542 5.422 9.62607 5.39387C9.59794 5.36574 9.55979 5.34993 9.52 5.34993V5.34993ZM10.19 5.34993C10.1673 5.34363 10.1434 5.34277 10.1203 5.34743C10.0972 5.35209 10.0755 5.36213 10.057 5.37674C10.0384 5.39135 10.0236 5.41012 10.0137 5.43153C10.0039 5.45293 9.99914 5.47637 10 5.49993V7.07993C10 7.09963 10.0039 7.11914 10.0114 7.13733C10.019 7.15553 10.03 7.17207 10.0439 7.186C10.0579 7.19993 10.0744 7.21098 10.0926 7.21851C10.1108 7.22605 10.1303 7.22993 10.15 7.22993H12C12.0398 7.22993 12.0779 7.21413 12.1061 7.186C12.1342 7.15787 12.15 7.11971 12.15 7.07993V5.49993C12.15 5.46015 12.1342 5.422 12.1061 5.39387C12.0779 5.36574 12.0398 5.34993 12 5.34993H10.19ZM5.28 3.08993H7C7.04244 3.08993 7.08313 3.10679 7.11314 3.13679C7.14315 3.1668 7.16 3.2075 7.16 3.24993V4.80993C7.16447 4.83331 7.16366 4.85738 7.15765 4.8804C7.15163 4.90343 7.14056 4.92482 7.12523 4.94302C7.1099 4.96122 7.09071 4.97577 7.06904 4.98562C7.04738 4.99547 7.02379 5.00035 7 4.99993H5.28C5.24022 4.99993 5.20207 4.98413 5.17394 4.956C5.14581 4.92787 5.13 4.88971 5.13 4.84993V3.23993C5.13 3.22023 5.13388 3.20073 5.14142 3.18253C5.14896 3.16433 5.16001 3.14779 5.17394 3.13387C5.18787 3.11994 5.2044 3.10889 5.2226 3.10135C5.2408 3.09381 5.2603 3.08993 5.28 3.08993V3.08993ZM7.75 3.08993H9.52C9.5397 3.08993 9.55921 3.09381 9.5774 3.10135C9.5956 3.10889 9.61214 3.11994 9.62607 3.13387C9.64 3.14779 9.65105 3.16433 9.65858 3.18253C9.66612 3.20073 9.67 3.22023 9.67 3.23993V4.80993C9.67 4.85237 9.65315 4.89306 9.62314 4.92307C9.59313 4.95307 9.55244 4.96993 9.51 4.96993H7.75C7.71022 4.96993 7.67207 4.95413 7.64394 4.926C7.61581 4.89787 7.6 4.85971 7.6 4.81993V3.23993C7.6 3.22023 7.60388 3.20073 7.61142 3.18253C7.61896 3.16433 7.63001 3.14779 7.64394 3.13387C7.65787 3.11994 7.6744 3.10889 7.6926 3.10135C7.7108 3.09381 7.7303 3.08993 7.75 3.08993V3.08993ZM10.19 3.08993H12C12.0197 3.08993 12.0392 3.09381 12.0574 3.10135C12.0756 3.10889 12.0921 3.11994 12.1061 3.13387C12.12 3.14779 12.131 3.16433 12.1386 3.18253C12.1461 3.20073 12.15 3.22023 12.15 3.23993V4.80993C12.1563 4.83265 12.1572 4.85654 12.1525 4.87966C12.1478 4.90278 12.1378 4.92447 12.1232 4.94298C12.1086 4.96149 12.0898 4.97629 12.0684 4.98618C12.047 4.99608 12.0236 5.00079 12 4.99993H10.19C10.1639 5.00554 10.1368 5.00451 10.1111 4.99694C10.0855 4.98938 10.0622 4.97552 10.0433 4.95663C10.0244 4.93774 10.0106 4.91441 10.003 4.88879C9.99543 4.86317 9.9944 4.83606 10 4.80993V3.23993C9.99914 3.21637 10.0039 3.19293 10.0137 3.17153C10.0236 3.15012 10.0384 3.13135 10.057 3.11674C10.0755 3.10213 10.0972 3.09209 10.1203 3.08743C10.1434 3.08277 10.1673 3.08363 10.19 3.08993V3.08993Z" fill="black"/>
<path d="M11.96 0.820068H10.19C10.1072 0.820068 10.04 0.887225 10.04 0.970068V2.55007C10.04 2.63291 10.1072 2.70007 10.19 2.70007H11.96C12.0428 2.70007 12.11 2.63291 12.11 2.55007V0.970068C12.11 0.887225 12.0428 0.820068 11.96 0.820068Z" fill="black"/>
<path d="M12.65 5.3501C12.6102 5.3501 12.5721 5.3659 12.5439 5.39403C12.5158 5.42216 12.5 5.46031 12.5 5.5001V7.0801C12.5 7.11988 12.5158 7.15803 12.5439 7.18616C12.5721 7.21429 12.6102 7.2301 12.65 7.2301H14.42C14.4397 7.2301 14.4592 7.22622 14.4774 7.21868C14.4956 7.21114 14.5121 7.20009 14.5261 7.18616C14.54 7.17223 14.551 7.1557 14.5586 7.1375C14.5661 7.1193 14.57 7.0998 14.57 7.0801V5.5001C14.57 5.4804 14.5661 5.46089 14.5586 5.44269C14.551 5.4245 14.54 5.40796 14.5261 5.39403C14.5121 5.3801 14.4956 5.36905 14.4774 5.36152C14.4592 5.35398 14.4397 5.3501 14.42 5.3501H12.65Z" fill="black"/>
</svg>
