<svg width="22" height="10" viewBox="0 0 22 10" fill="none" xmlns="http://www.w3.org/2000/svg">
<path d="M6.02097 5.11103V1.00403H7.02197V3.52903C7.51497 2.94303 8.19197 2.77303 8.85997 2.77303C9.97797 2.77303 11.221 3.52703 11.221 5.15603C11.221 5.35103 11.207 5.53703 11.17 5.71503C11.37 4.91803 12.233 4.62503 13.588 4.59203C14.014 4.57603 14.502 4.57603 14.89 4.57603V4.46503C14.89 3.72703 14.426 3.42603 13.614 3.42603C13.012 3.42603 12.574 3.67603 12.524 4.10203H11.46C11.573 3.02603 12.713 2.75003 13.702 2.75003C14.591 2.75003 15.368 2.97503 15.719 3.60203L15.354 2.90003H16.531L18.247 6.34303L19.963 2.89803H21L17.895 8.99603H16.771L17.665 7.29303L15.72 3.63703C15.828 3.85003 15.887 4.10203 15.887 4.41403V6.46903C15.887 6.75803 15.896 7.04303 15.921 7.30703H14.99C14.9649 7.09495 14.9522 6.88159 14.952 6.66803C14.449 7.28103 13.849 7.47103 13.015 7.47103C11.779 7.47103 11.118 6.81903 11.118 6.05503C11.118 5.93003 11.131 5.81903 11.149 5.71703C10.898 6.75803 10.014 7.45703 8.83897 7.45703C8.11197 7.45703 7.42497 7.19503 7.00197 6.68203C7.00197 6.88303 6.98897 7.09403 6.96897 7.29303H5.98297C6.00097 6.96903 6.01697 6.58003 6.01697 6.25603V5.37903H1.98497C2.03897 6.29303 2.66797 6.83003 3.53197 6.83003C4.13097 6.83003 4.66297 6.58003 4.84097 6.05503H5.87597C5.67597 7.13303 4.53197 7.49403 3.54697 7.49403C1.75797 7.51203 0.964966 6.52103 0.964966 5.19303C0.964966 3.73003 1.78397 2.76503 3.56697 2.76503C4.97597 2.76503 6.01197 3.50303 6.02097 5.10703V5.11103V5.11103ZM13.648 5.26403C12.733 5.29103 12.169 5.45703 12.169 6.05703C12.169 6.44603 12.47 6.86603 13.259 6.86603C14.311 6.86603 14.874 6.29203 14.874 5.35203V5.24303C14.498 5.24303 14.048 5.24903 13.635 5.26303H13.646L13.648 5.26403V5.26403ZM8.58897 6.82803C9.51597 6.82803 10.155 6.15603 10.155 5.14203C10.155 4.12803 9.51297 3.45603 8.57497 3.45603C7.64697 3.45603 6.99697 4.12803 6.99697 5.14203C6.99697 6.15603 7.63597 6.82803 8.56197 6.82803H8.58897ZM4.95797 4.73003C4.92097 3.79103 4.24397 3.43903 3.51797 3.43903C2.72997 3.43903 2.10397 3.83403 2.00197 4.73003H4.95797Z" fill="black"/>
</svg>
